<svg width="44" height="44" viewBox="0 0 44 44" fill="none" xmlns="http://www.w3.org/2000/svg">
<path d="M19.5 6.76726L19.4993 6.76867L16.2754 13.2165C16.2749 13.2175 16.2744 13.2185 16.2739 13.2196C15.9864 13.8049 15.4898 14.3306 14.9517 14.7276C14.4122 15.1256 13.7631 15.4445 13.1218 15.5514L13.1214 15.5514L7.27346 16.5231C5.53281 16.8132 4.71553 17.5433 4.48856 18.2494C4.26213 18.9539 4.49999 20.0193 5.75368 21.2644L5.7555 21.2663L10.3022 25.8129C10.7996 26.3103 11.1506 26.9977 11.3477 27.686C11.5448 28.3747 11.6101 29.1424 11.457 29.8256L11.457 29.8256L11.4559 29.8306L10.1543 35.4583C9.65559 37.6226 10.0751 38.7392 10.6422 39.1526C11.2106 39.567 12.4067 39.6256 14.3221 38.4942L19.8028 35.2497C20.4418 34.8711 21.2381 34.7049 21.9933 34.7049C22.7491 34.7049 23.5472 34.8713 24.1923 35.2467L24.1923 35.2466L24.1972 35.2495L29.6789 38.4945L29.6796 38.4949C31.5821 39.624 32.7792 39.5632 33.351 39.1459C33.9223 38.7291 34.3439 37.61 33.8461 35.459L33.8461 35.4589L32.5445 29.8306L32.5444 29.8306L32.5433 29.8256C32.3902 29.1424 32.4555 28.3747 32.6527 27.686C32.8497 26.9977 33.2008 26.3103 33.6982 25.8129L38.2448 21.2663C39.4902 20.0209 39.73 18.9543 39.5045 18.2481C39.2792 17.5426 38.4668 16.813 36.7269 16.5231L30.8789 15.5515L30.8763 15.551C30.2433 15.4435 29.5991 15.1238 29.0633 14.7265C28.5284 14.33 28.0321 13.8046 27.7447 13.2194L24.52 6.77007C24.5199 6.76986 24.5198 6.76965 24.5197 6.76944C23.694 5.12692 22.739 4.55701 22.0025 4.55701C21.2672 4.55701 20.3167 5.12541 19.5 6.76726Z" fill="#E8E8E8" stroke="#E8E8E8" stroke-width="1.5" stroke-linecap="round" stroke-linejoin="round"/>
<path d="M26.768 21.1174C26.0803 21.1174 25.5228 20.5599 25.5228 19.8722C25.5228 19.1844 26.0803 18.627 26.768 18.627C27.4557 18.627 28.0132 19.1844 28.0132 19.8722C28.0132 20.5599 27.4557 21.1174 26.768 21.1174Z" fill="#F7F7F7"/>
<path d="M17.3036 21.1174C16.6159 21.1174 16.0584 20.5599 16.0584 19.8722C16.0584 19.1844 16.6159 18.627 17.3036 18.627C17.9913 18.627 18.5488 19.1844 18.5488 19.8722C18.5488 20.5599 17.9913 21.1174 17.3036 21.1174Z" fill="#F7F7F7"/>
<path d="M27.2543 27.9176C27.0333 27.8607 26.8126 27.8169 26.5917 27.7746C26.3707 27.7324 26.15 27.6979 25.9291 27.6647C25.4874 27.5992 25.0457 27.5504 24.6041 27.5086C23.7205 27.4284 22.8372 27.3911 21.9536 27.3848C21.07 27.3785 20.1867 27.4067 19.3034 27.4767C19.0824 27.494 18.8617 27.5139 18.6407 27.5383C18.4198 27.5628 18.1991 27.5887 17.9781 27.6181C17.7572 27.6476 17.5365 27.682 17.3155 27.7215C17.0945 27.7611 16.8738 27.8033 16.6529 27.8585C16.4988 27.897 16.362 27.9859 16.2642 28.1111C16.1665 28.2363 16.1134 28.3906 16.1134 28.5494C16.1134 28.7082 16.1665 28.8625 16.2642 28.9877C16.362 29.1129 16.4988 29.2018 16.6529 29.2403C16.8738 29.2954 17.0948 29.3385 17.3155 29.3772C17.5362 29.416 17.7572 29.4494 17.9781 29.4807C18.1991 29.5119 18.4198 29.5375 18.6407 29.5604C18.8617 29.5833 19.0824 29.6047 19.3034 29.6223C20.1867 29.692 21.0703 29.7195 21.9536 29.7139C22.8369 29.7084 23.7205 29.6707 24.6041 29.5904C25.0457 29.5486 25.4874 29.4995 25.9291 29.4343C26.15 29.4009 26.371 29.3659 26.5917 29.3241C26.8124 29.2823 27.0333 29.2383 27.2543 29.1812C27.3943 29.145 27.5184 29.0633 27.6069 28.9489C27.6955 28.8346 27.7436 28.694 27.7436 28.5494C27.7436 28.4047 27.6955 28.2642 27.6069 28.1498C27.5184 28.0355 27.3943 27.9538 27.2543 27.9176Z" fill="#F7F7F7"/>
</svg>
