<svg width="44" height="44" viewBox="0 0 44 44" fill="none" xmlns="http://www.w3.org/2000/svg">
<path d="M19.5 6.76726L19.4993 6.76867L16.2754 13.2165C16.2749 13.2175 16.2744 13.2185 16.2739 13.2196C15.9864 13.8049 15.4898 14.3306 14.9517 14.7276C14.4122 15.1256 13.7631 15.4445 13.1218 15.5514L13.1214 15.5514L7.27346 16.5231C5.53281 16.8132 4.71553 17.5433 4.48856 18.2494C4.26213 18.9539 4.49999 20.0193 5.75368 21.2644L5.7555 21.2663L10.3022 25.8129C10.7996 26.3103 11.1506 26.9977 11.3477 27.686C11.5448 28.3747 11.6101 29.1424 11.457 29.8256L11.457 29.8256L11.4559 29.8306L10.1543 35.4583C9.65559 37.6226 10.0751 38.7392 10.6422 39.1526C11.2106 39.567 12.4067 39.6256 14.3221 38.4942L19.8028 35.2497C20.4418 34.8711 21.2381 34.7049 21.9933 34.7049C22.7491 34.7049 23.5472 34.8713 24.1923 35.2467L24.1923 35.2466L24.1972 35.2495L29.6789 38.4945L29.6796 38.4949C31.5821 39.624 32.7792 39.5632 33.351 39.1459C33.9223 38.7291 34.3439 37.61 33.8461 35.459L33.8461 35.4589L32.5445 29.8306L32.5444 29.8306L32.5433 29.8256C32.3902 29.1424 32.4555 28.3747 32.6527 27.686C32.8497 26.9977 33.2008 26.3103 33.6982 25.8129L38.2448 21.2663C39.4902 20.0209 39.73 18.9543 39.5045 18.2481C39.2792 17.5426 38.4668 16.813 36.7269 16.5231L30.8789 15.5515L30.8763 15.551C30.2433 15.4435 29.5991 15.1238 29.0633 14.7265C28.5284 14.33 28.0321 13.8046 27.7447 13.2194L24.52 6.77007C24.5199 6.76986 24.5198 6.76965 24.5197 6.76944C23.694 5.12692 22.739 4.55701 22.0025 4.55701C21.2672 4.55701 20.3167 5.12541 19.5 6.76726Z" fill="#E8E8E8" stroke="#E8E8E8" stroke-width="1.5" stroke-linecap="round" stroke-linejoin="round"/>
<path d="M25.8885 21.1174C25.2008 21.1174 24.6433 20.5599 24.6433 19.8722C24.6433 19.1844 25.2008 18.627 25.8885 18.627C26.5762 18.627 27.1337 19.1844 27.1337 19.8722C27.1337 20.5599 26.5762 21.1174 25.8885 21.1174Z" fill="#F7F7F7"/>
<path d="M17.9735 21.1174C17.2858 21.1174 16.7284 20.5599 16.7284 19.8722C16.7284 19.1844 17.2858 18.627 17.9735 18.627C18.6612 18.627 19.2188 19.1844 19.2188 19.8722C19.2188 20.5599 18.6612 21.1174 17.9735 21.1174Z" fill="#F7F7F7"/>
<path d="M26.5041 25.6115C26.8345 25.6204 27.0283 25.9379 27.0283 26.7934C27.0283 29.6346 22.8613 29.7229 22.0515 29.7133C21.2758 29.724 17.0612 29.6501 17.0612 26.7936C17.0612 25.9644 17.2433 25.6406 17.5554 25.6134" fill="#F7F7F7"/>
</svg>
