<svg width="44" height="44" viewBox="0 0 44 44" fill="none" xmlns="http://www.w3.org/2000/svg">
<path d="M19.5 6.76726L19.4993 6.76867L16.2754 13.2165C16.2749 13.2174 16.2744 13.2184 16.274 13.2193C15.9865 13.8047 15.4899 14.3305 14.9517 14.7276C14.4122 15.1256 13.7631 15.4445 13.1218 15.5514L13.1214 15.5514L7.27346 16.523C5.53281 16.8132 4.71553 17.5433 4.48856 18.2494C4.26213 18.9539 4.49999 20.0193 5.75368 21.2644L5.7555 21.2663L10.3022 25.8129C10.7996 26.3103 11.1506 26.9977 11.3477 27.686C11.5448 28.3747 11.6101 29.1424 11.457 29.8256L11.457 29.8256L11.4559 29.8306L10.1543 35.4583C9.65559 37.6226 10.0751 38.7392 10.6422 39.1526C11.2106 39.567 12.4067 39.6256 14.3221 38.4942L19.8028 35.2497C19.8029 35.2496 19.803 35.2496 19.8031 35.2495C20.442 34.871 21.2382 34.7049 21.9933 34.7049C22.7491 34.7049 23.5472 34.8713 24.1923 35.2467L24.1923 35.2466L24.1972 35.2495L29.6789 38.4945L29.6796 38.4949C31.5821 39.624 32.7792 39.5632 33.351 39.1459C33.9223 38.7291 34.3439 37.61 33.8461 35.459L33.8461 35.4589L32.5445 29.8306L32.5444 29.8306L32.5433 29.8256C32.3902 29.1424 32.4555 28.3747 32.6527 27.686C32.8497 26.9977 33.2008 26.3103 33.6982 25.8129L38.2448 21.2663C39.4902 20.0209 39.73 18.9543 39.5045 18.2481C39.2792 17.5426 38.4668 16.813 36.7269 16.523L30.8789 15.5515L30.8763 15.551C30.2433 15.4435 29.5991 15.1238 29.0633 14.7265C28.5284 14.33 28.0321 13.8046 27.7447 13.2194L24.52 6.77007C24.52 6.76988 24.5199 6.76968 24.5198 6.76949C23.694 5.12693 22.739 4.55701 22.0025 4.55701C21.2672 4.55701 20.3167 5.12541 19.5 6.76726Z" fill="#FABF35" stroke="#FABF35" stroke-width="1.5" stroke-linecap="round" stroke-linejoin="round"/>
<path d="M26.1807 21.1174C25.493 21.1174 24.9355 20.5599 24.9355 19.8722C24.9355 19.1844 25.493 18.627 26.1807 18.627C26.8684 18.627 27.4259 19.1844 27.4259 19.8722C27.4259 20.5599 26.8684 21.1174 26.1807 21.1174Z" fill="#F7F7F7"/>
<path d="M17.7256 21.1174C17.0379 21.1174 16.4804 20.5599 16.4804 19.8722C16.4804 19.1844 17.0379 18.627 17.7256 18.627C18.4133 18.627 18.9708 19.1844 18.9708 19.8722C18.9708 20.5599 18.4133 21.1174 17.7256 21.1174Z" fill="#F7F7F7"/>
<path d="M17.1357 26.3556C17.1411 26.3781 17.1424 26.3866 17.1446 26.3981L17.1505 26.4293L17.1613 26.4858C17.1689 26.5224 17.177 26.5561 17.1851 26.5908C17.2013 26.6582 17.2209 26.7239 17.2404 26.7888C17.2815 26.9161 17.3298 27.041 17.385 27.1627C17.4956 27.4055 17.6313 27.6361 17.7897 27.8507C18.1129 28.2822 18.5144 28.6492 18.9732 28.9324C19.2005 29.0713 19.4383 29.1923 19.6843 29.2944C19.9264 29.393 20.1753 29.4738 20.4292 29.536C20.9201 29.6555 21.4234 29.7159 21.9286 29.7159C22.4274 29.7211 22.9252 29.6698 23.4125 29.563L23.5989 29.5194C23.6609 29.5052 23.723 29.4848 23.7846 29.4677C23.8462 29.4506 23.9082 29.4335 23.9696 29.411L24.1535 29.3467C24.4001 29.2559 24.6393 29.1458 24.8687 29.0176C25.1013 28.8878 25.3222 28.7384 25.5292 28.5709C25.7364 28.4011 25.9273 28.2123 26.0994 28.007C26.1423 27.9557 26.1826 27.9018 26.2235 27.8496C26.2644 27.7974 26.3027 27.7417 26.3397 27.6861C26.4141 27.5748 26.4823 27.4595 26.5441 27.3408C26.6069 27.2214 26.6621 27.0981 26.7096 26.9719C26.7321 26.9078 26.7557 26.8426 26.7757 26.7749C26.7856 26.7398 26.7953 26.7075 26.8047 26.6695L26.8184 26.6126L26.8258 26.5811C26.8288 26.5687 26.8301 26.5615 26.8371 26.5373C26.8972 26.3675 26.8873 26.1808 26.8098 26.0183C26.7322 25.8558 26.5933 25.7307 26.4235 25.6707C26.2537 25.6106 26.0671 25.6204 25.9045 25.698C25.742 25.7755 25.617 25.9145 25.5569 26.0842C25.5591 26.0725 25.5555 26.0775 25.5537 26.0777C25.5519 26.0779 25.5488 26.0809 25.5461 26.0831C25.5434 26.0854 25.5346 26.0928 25.5279 26.0993L25.4892 26.138C25.4616 26.1654 25.4339 26.1939 25.4045 26.2218C25.3471 26.2787 25.2849 26.3342 25.2228 26.3877C25.0987 26.4941 24.9675 26.5917 24.83 26.68C24.6946 26.7675 24.5539 26.8464 24.4087 26.9163C24.2628 26.9848 24.1133 27.0454 23.9608 27.0978C23.8059 27.1509 23.6483 27.1959 23.4887 27.2327C23.4071 27.25 23.3268 27.2691 23.2429 27.2823C23.2014 27.2895 23.1611 27.2985 23.1186 27.3048L22.992 27.3233C22.6428 27.3701 22.2908 27.3922 21.9385 27.3891C21.5922 27.3898 21.2464 27.3634 20.9043 27.31C20.7418 27.2845 20.5807 27.2509 20.4215 27.2093C20.2653 27.1677 20.114 27.1171 19.9649 27.0613C19.668 26.9449 19.3872 26.7908 19.1295 26.6029C18.9972 26.5053 18.8714 26.3991 18.7529 26.2852C18.694 26.227 18.6346 26.1676 18.5793 26.1067L18.5379 26.0617L18.4984 26.0168L18.461 25.9745C18.4543 25.9673 18.4489 25.9619 18.4435 25.9565C18.4414 25.9539 18.4388 25.9517 18.4359 25.95C18.4336 25.95 18.4305 25.9448 18.432 25.955C18.4057 25.8697 18.3629 25.7905 18.306 25.7219C18.2491 25.6532 18.1792 25.5965 18.1003 25.5548C18.0215 25.5132 17.9352 25.4875 17.8464 25.4791C17.7576 25.4708 17.6681 25.4801 17.5828 25.5064C17.4976 25.5327 17.4184 25.5756 17.3498 25.6325C17.2811 25.6894 17.2244 25.7593 17.1827 25.8381C17.1411 25.917 17.1153 26.0033 17.107 26.092C17.0987 26.1808 17.108 26.2704 17.1343 26.3556H17.1357Z" fill="#F7F7F7"/>
</svg>
