<svg width="44" height="44" viewBox="0 0 44 44" fill="none" xmlns="http://www.w3.org/2000/svg">
<path d="M19.5 6.76726L19.4993 6.76867L16.2754 13.2165C16.2749 13.2175 16.2744 13.2185 16.2739 13.2196C15.9864 13.8049 15.4898 14.3306 14.9517 14.7276C14.4122 15.1256 13.7631 15.4445 13.1218 15.5514L13.1214 15.5514L7.27346 16.5231C5.53281 16.8132 4.71553 17.5433 4.48856 18.2494C4.26213 18.9539 4.49999 20.0193 5.75368 21.2644L5.7555 21.2663L10.3022 25.8129C10.7996 26.3103 11.1506 26.9977 11.3477 27.686C11.5448 28.3747 11.6101 29.1424 11.457 29.8256L11.457 29.8256L11.4559 29.8306L10.1543 35.4583C9.65559 37.6226 10.0751 38.7392 10.6422 39.1526C11.2106 39.567 12.4067 39.6256 14.3221 38.4942L19.8028 35.2497C20.4418 34.8711 21.2381 34.7049 21.9933 34.7049C22.7491 34.7049 23.5472 34.8713 24.1923 35.2467L24.1923 35.2466L24.1972 35.2495L29.6789 38.4945L29.6796 38.4949C31.5821 39.624 32.7792 39.5632 33.351 39.1459C33.9223 38.7291 34.3439 37.61 33.8461 35.459L33.8461 35.4589L32.5445 29.8306L32.5444 29.8306L32.5433 29.8256C32.3902 29.1424 32.4555 28.3747 32.6527 27.686C32.8497 26.9977 33.2008 26.3103 33.6982 25.8129L38.2448 21.2663C39.4902 20.0209 39.73 18.9543 39.5045 18.2481C39.2792 17.5426 38.4668 16.813 36.7269 16.5231L30.8789 15.5515L30.8763 15.551C30.2433 15.4435 29.5991 15.1238 29.0633 14.7265C28.5284 14.33 28.0321 13.8046 27.7447 13.2194L24.52 6.77007C24.5199 6.76986 24.5198 6.76965 24.5197 6.76944C23.694 5.12692 22.739 4.55701 22.0025 4.55701C21.2672 4.55701 20.3167 5.12541 19.5 6.76726Z" fill="#FABF35" stroke="#FABF35" stroke-width="1.5" stroke-linecap="round" stroke-linejoin="round"/>
<path d="M26.329 21.1174C25.6413 21.1174 25.0838 20.5599 25.0838 19.8722C25.0838 19.1844 25.6413 18.627 26.329 18.627C27.0166 18.627 27.5741 19.1844 27.5741 19.8722C27.5741 20.5599 27.0166 21.1174 26.329 21.1174Z" fill="#F7F7F7"/>
<path d="M17.6121 21.1174C16.9244 21.1174 16.3669 20.5599 16.3669 19.8722C16.3669 19.1844 16.9244 18.627 17.6121 18.627C18.2998 18.627 18.8573 19.1844 18.8573 19.8722C18.8573 20.5599 18.2998 21.1174 17.6121 21.1174Z" fill="#F7F7F7"/>
<path d="M26.9767 28.8107C26.9714 28.7875 26.97 28.7787 26.9679 28.7671L26.9619 28.7351L26.951 28.677C26.9436 28.6392 26.9355 28.6042 26.9278 28.5685C26.9114 28.499 26.8917 28.431 26.8717 28.364C26.8304 28.2324 26.7816 28.1031 26.7257 27.977C26.6132 27.7254 26.4749 27.4862 26.3131 27.263C25.983 26.8131 25.5707 26.4296 25.0981 26.1328C24.8637 25.9865 24.618 25.8591 24.3633 25.7518C24.1128 25.6478 23.8548 25.5626 23.5917 25.4968C23.0827 25.3706 22.5603 25.3065 22.0359 25.3058C21.5184 25.3002 21.002 25.3541 20.4968 25.4667L20.3035 25.513C20.2393 25.5283 20.1751 25.5494 20.1109 25.5675C19.9827 25.6027 19.8559 25.6493 19.7289 25.6948C19.4736 25.7902 19.2262 25.9059 18.9893 26.0406C18.7492 26.1768 18.5213 26.3335 18.3083 26.509C18.095 26.6862 17.8991 26.8833 17.7232 27.0976C17.5479 27.3116 17.3958 27.5437 17.2696 27.7899C17.2059 27.9138 17.1498 28.0414 17.1016 28.1721C17.0784 28.2384 17.0552 28.3059 17.0348 28.3759C17.0249 28.4118 17.0151 28.4454 17.0056 28.4846L16.9919 28.5432L16.9845 28.5757C16.9815 28.5882 16.9801 28.5958 16.9732 28.6204C16.9397 28.7079 16.9241 28.8012 16.9274 28.8948C16.9307 28.9884 16.9527 29.0804 16.9921 29.1653C17.0316 29.2503 17.0877 29.3264 17.1571 29.3893C17.2265 29.4522 17.3078 29.5005 17.3963 29.5313C17.4847 29.5622 17.5784 29.575 17.6719 29.569C17.7653 29.563 17.8566 29.5383 17.9404 29.4964C18.0241 29.4545 18.0986 29.3961 18.1594 29.3249C18.2202 29.2537 18.2661 29.171 18.2944 29.0817C18.2923 29.0933 18.2958 29.0882 18.2978 29.0879C18.2999 29.0877 18.3029 29.0845 18.306 29.0821C18.309 29.0798 18.3175 29.0717 18.3245 29.0647L18.3646 29.024C18.3931 28.995 18.4216 28.9651 18.452 28.9356C18.5109 28.8761 18.5753 28.8179 18.639 28.7613C18.7667 28.6494 18.902 28.5463 19.0437 28.4528C19.1829 28.3605 19.3279 28.2773 19.4779 28.2039C19.6279 28.1316 19.7818 28.0676 19.9389 28.0122L20.0576 27.9716L20.179 27.9357C20.2184 27.9223 20.2604 27.9125 20.3017 27.9019C20.3429 27.8912 20.3828 27.8787 20.4252 27.8706C20.5093 27.8527 20.5919 27.8321 20.6783 27.8182C20.7212 27.8105 20.7629 27.8013 20.8065 27.795L20.937 27.7758C21.2973 27.7262 21.6608 27.7029 22.0245 27.7062C22.7637 27.7097 23.4503 27.8101 24.0578 28.0539C24.3643 28.1772 24.6535 28.3396 24.9182 28.5372C25.0547 28.6401 25.1843 28.7517 25.3062 28.8714C25.3667 28.9324 25.4279 28.9947 25.4847 29.0587L25.5274 29.1065L25.5681 29.1528L25.6069 29.1973C25.6136 29.2048 25.6194 29.2105 25.6249 29.2163C25.6272 29.219 25.6299 29.2214 25.6328 29.2233C25.6351 29.2233 25.6384 29.2289 25.637 29.2189C25.6911 29.3965 25.8135 29.5454 25.9773 29.6328C26.1411 29.7201 26.333 29.7389 26.5106 29.6848C26.6882 29.6307 26.8371 29.5083 26.9245 29.3445C27.0119 29.1806 27.0306 28.9888 26.9765 28.8112L26.9767 28.8107Z" fill="#F7F7F7"/>
</svg>
