<svg width="54" height="53" viewBox="0 0 54 53" fill="none" xmlns="http://www.w3.org/2000/svg">
<path d="M27 45.1328C35.6899 45.1328 42.7344 38.0883 42.7344 29.3984C42.7344 20.7086 35.6899 13.6641 27 13.6641C18.3101 13.6641 11.2656 20.7086 11.2656 29.3984C11.2656 38.0883 18.3101 45.1328 27 45.1328Z" fill="#9A583F"/>
<path d="M27 45.9609C17.8672 45.9609 10.4375 38.5313 10.4375 29.3984C10.4375 20.2656 17.8672 12.8359 27 12.8359C36.1328 12.8359 43.5625 20.2656 43.5625 29.3984C43.5625 38.5313 36.1328 45.9609 27 45.9609ZM27 14.4922C18.781 14.4922 12.0938 21.1795 12.0938 29.3984C12.0938 37.6174 18.781 44.3047 27 44.3047C35.219 44.3047 41.9062 37.6174 41.9062 29.3984C41.9062 21.1795 35.219 14.4922 27 14.4922Z" fill="#9A583F"/>
<path d="M27 38.5078C32.031 38.5078 36.1094 34.4294 36.1094 29.3984C36.1094 24.3675 32.031 20.2891 27 20.2891C21.969 20.2891 17.8906 24.3675 17.8906 29.3984C17.8906 34.4294 21.969 38.5078 27 38.5078Z" fill="white"/>
<path fill-rule="evenodd" clip-rule="evenodd" d="M17.0625 29.3984C17.0625 34.8783 21.5201 39.3359 27 39.3359C32.4799 39.3359 36.9375 34.8783 36.9375 29.3984C36.9375 23.9186 32.4799 19.4609 27 19.4609C21.5201 19.4609 17.0625 23.9186 17.0625 29.3984ZM18.7188 29.3984C18.7188 24.8324 22.434 21.1172 27 21.1172C31.566 21.1172 35.2812 24.8324 35.2812 29.3984C35.2812 33.9644 31.566 37.6797 27 37.6797C22.434 37.6797 18.7188 33.9644 18.7188 29.3984Z" fill="white"/>
<path d="M10.4375 46.7891C9.35625 46.7891 8.31462 46.3338 7.5795 45.5404C6.84438 44.7471 6.47075 43.6731 6.55324 42.5951L7.85608 25.6678C4.46675 24.5647 2.15625 21.4261 2.15625 17.8047C2.15625 13.2443 5.71218 6.21094 10.4375 6.21094C15.1628 6.21094 18.7188 13.2443 18.7188 17.8047C18.7188 21.4261 16.4082 24.5647 13.0189 25.6678L14.3218 42.5943C14.4043 43.6731 14.0306 44.7471 13.2955 45.5404C12.5604 46.3338 11.5187 46.7891 10.4375 46.7891ZM10.4375 7.86719C6.90907 7.86719 3.8125 14.0611 3.8125 17.8047C3.8125 20.8932 5.91354 23.5433 8.92278 24.2477C9.31985 24.3407 9.59078 24.7103 9.55923 25.1179L8.20463 42.722C8.15612 43.3512 8.36557 43.9521 8.795 44.4155C9.65224 45.3406 11.2228 45.3406 12.08 44.4155C12.5094 43.9521 12.7189 43.3512 12.6704 42.7212L11.3158 25.1179C11.2842 24.7103 11.5551 24.3407 11.9522 24.2477C14.9615 23.5433 17.0625 20.8932 17.0625 17.8047C17.0625 14.0611 13.9659 7.86719 10.4375 7.86719Z" fill="#9A583F"/>
<path d="M50.1875 7.03906H48.5312C48.0739 7.03906 47.7031 7.40981 47.7031 7.86719V18.2188C47.7031 18.9048 47.147 19.4609 46.4609 19.4609C45.7749 19.4609 45.2188 18.9048 45.2188 18.2188V7.86719C45.2188 7.40981 44.848 7.03906 44.3906 7.03906H42.7344C42.277 7.03906 41.9062 7.40981 41.9062 7.86719V18.2188C41.9062 18.9048 41.3501 19.4609 40.6641 19.4609C39.978 19.4609 39.4219 18.9048 39.4219 18.2188V7.86719C39.4219 7.40981 39.0511 7.03906 38.5938 7.03906H36.9375C36.4801 7.03906 36.1094 7.40981 36.1094 7.86719V21.9453C36.1094 23.7747 37.5924 25.2578 39.4219 25.2578H41.8426L40.504 42.6582C40.367 44.4397 41.7756 45.9609 43.5625 45.9609C45.3494 45.9609 46.758 44.4397 46.621 42.6582L45.2824 25.2578H47.7031C49.5326 25.2578 51.0156 23.7747 51.0156 21.9453V7.86719C51.0156 7.40981 50.6449 7.03906 50.1875 7.03906Z" fill="white"/>
<path d="M43.5625 46.7891C42.4813 46.7891 41.4396 46.3338 40.7045 45.5404C39.9694 44.7471 39.5957 43.6731 39.6782 42.5951L40.9479 26.0859H39.4219C37.1389 26.0859 35.2812 24.2283 35.2812 21.9453V7.86719C35.2812 6.95415 36.0245 6.21094 36.9375 6.21094H38.5938C39.5068 6.21094 40.25 6.95415 40.25 7.86719V18.2188C40.25 18.4468 40.436 18.6328 40.6641 18.6328C40.8921 18.6328 41.0781 18.4468 41.0781 18.2188V7.86719C41.0781 6.95415 41.8213 6.21094 42.7344 6.21094H44.3906C45.3037 6.21094 46.0469 6.95415 46.0469 7.86719V18.2188C46.0469 18.4468 46.2329 18.6328 46.4609 18.6328C46.689 18.6328 46.875 18.4468 46.875 18.2188V7.86719C46.875 6.95415 47.6182 6.21094 48.5312 6.21094H50.1875C51.1005 6.21094 51.8438 6.95415 51.8438 7.86719V21.9453C51.8438 24.2283 49.9861 26.0859 47.7031 26.0859H46.1771L47.4468 42.5943C47.5293 43.6731 47.1556 44.7471 46.4205 45.5404C45.6854 46.3338 44.6437 46.7891 43.5625 46.7891ZM36.9375 7.86719V21.9453C36.9375 23.3153 38.0519 24.4297 39.4219 24.4297H41.8424C42.0728 24.4297 42.2936 24.5259 42.4497 24.6949C42.6066 24.8648 42.6859 25.0912 42.6681 25.3217L41.3296 42.722C41.2811 43.3512 41.4906 43.9521 41.92 44.4155C42.7772 45.3407 44.3478 45.3407 45.205 44.4155C45.6344 43.9521 45.8439 43.3512 45.7954 42.7212L44.4569 25.3217C44.4392 25.0912 44.5184 24.8648 44.6753 24.6949C44.8314 24.5259 45.0522 24.4297 45.2826 24.4297H47.7031C49.0731 24.4297 50.1875 23.3153 50.1875 21.9453V7.86719H48.5312V18.2188C48.5312 19.3607 47.6028 20.2891 46.4609 20.2891C45.319 20.2891 44.3906 19.3607 44.3906 18.2188V7.86719H42.7344V18.2188C42.7344 19.3607 41.806 20.2891 40.6641 20.2891C39.5222 20.2891 38.5938 19.3607 38.5938 18.2188V7.86719H36.9375Z" fill="#9A583F"/>
<path d="M29.8922 25.5323C28.9114 25.3991 28.0193 25.8023 27.4928 26.4784C27.25 26.7904 26.75 26.7904 26.5071 26.4784C25.9807 25.8024 25.0886 25.3992 24.1079 25.5323C22.7734 25.7133 21.8882 26.9148 21.969 28.1935C22.1275 30.7038 27 33.29 27 33.29C27 33.29 31.8724 30.7038 32.031 28.1936C32.1118 26.9149 31.2267 25.7134 29.8922 25.5323Z" fill="#9A583F"/>
<path d="M27 34.2969C26.8377 34.2969 26.6754 34.2575 26.5278 34.1798C25.978 33.8877 21.1524 31.2428 20.9635 28.2565C20.8474 26.4142 22.1694 24.7784 23.9724 24.5335C25.1045 24.3791 26.2209 24.7558 27 25.5211C27.779 24.7558 28.8964 24.3801 30.0266 24.5335H30.0275C31.8315 24.7794 33.1525 26.4152 33.0364 28.2565C32.8476 31.2428 28.022 33.8877 27.4721 34.1798C27.3246 34.2575 27.1623 34.2969 27 34.2969ZM24.4731 26.5145C24.3973 26.5145 24.3206 26.5194 24.2429 26.5302C23.4816 26.6335 22.9239 27.3358 22.974 28.1306C23.0517 29.3611 25.2363 31.11 26.999 32.1369C28.7626 31.108 30.9482 29.3572 31.0259 28.1306C31.0761 27.3368 30.5184 26.6335 29.7561 26.5302C29.1836 26.4516 28.621 26.6699 28.2875 27.0968C27.6718 27.8876 26.3282 27.8876 25.7124 27.0968C25.4242 26.727 24.9639 26.5145 24.4731 26.5145Z" fill="#9A583F"/>
</svg>
