<svg width="54" height="53" viewBox="0 0 54 53" fill="none" xmlns="http://www.w3.org/2000/svg">
<g clip-path="url(#clip0_99_247)">
<path d="M1.01758 53C0.914062 53 0.820898 52.9689 0.738086 52.9172C0.582812 52.824 0.5 52.6584 0.5 52.4824V40.3711C0.5 40.1641 0.624219 39.9777 0.810547 39.8949L8.02559 36.7998L12.8805 34.0773C15.3338 32.7006 18.108 31.976 20.9236 31.9656L33.5732 30.4336C34.391 30.3404 35.1984 30.5889 35.8195 31.1375C36.4303 31.6758 36.7822 32.4625 36.7822 33.2803C36.7822 34.5225 35.9852 35.6197 34.8051 36.0027L24.2051 39.4602H36.1301L44.3803 35.6197L44.5459 35.2885C46.1711 32.1002 49.4111 30.1127 52.9928 30.1127C53.1584 30.1127 53.3137 30.1955 53.4068 30.3197C53.5 30.4543 53.5311 30.6199 53.4793 30.7855L50.7361 39.4395C50.7051 39.5326 50.6533 39.6051 50.5912 39.6672L43.4383 46.023C43.3762 46.0748 43.3141 46.1162 43.2312 46.1369L30.0434 49.8428C30.002 49.8531 29.9502 49.8635 29.8984 49.8635H8.36719L1.22461 52.9586C1.15215 52.9896 1.09004 53 1.01758 53ZM1.53516 40.7127V51.6957L8.05664 48.8801C8.11875 48.849 8.19121 48.8387 8.26367 48.8387H29.826L42.8275 45.1846L49.7838 39.0047L52.2578 31.1996C49.3594 31.4377 46.7922 33.1457 45.4568 35.775L45.2084 36.2719C45.1566 36.3754 45.0738 36.4582 44.9703 36.51L36.4613 40.4746C36.3889 40.5057 36.3164 40.5264 36.2439 40.5264H20.9443C20.6855 40.5264 20.4682 40.34 20.4371 40.0916C20.3957 39.8432 20.5406 39.5947 20.7891 39.5223L34.4842 35.0504C35.2398 34.802 35.7471 34.1084 35.7471 33.3113C35.7471 32.7937 35.5193 32.2865 35.1363 31.9449C34.743 31.6033 34.2254 31.4377 33.7078 31.4998L21.0271 33.0318C21.0064 33.0318 20.9857 33.0318 20.965 33.0318C18.3254 33.0318 15.7064 33.715 13.398 35.009L8.52246 37.7418C8.50176 37.7521 8.49141 37.7625 8.4707 37.7625L1.53516 40.7127ZM38.1797 5.58984H13.75C13.4602 5.58984 13.2324 5.36211 13.2324 5.07227V0.517578C13.2324 0.227734 13.4602 0 13.75 0H40.25C40.5398 0 40.7676 0.227734 40.7676 0.517578V5.07227H39.7324V1.03516H14.2676V4.55469H38.1797V5.58984Z" fill="#9A583F"/>
<path d="M1.53516 40.7127V51.6957L8.05664 48.8801C8.11875 48.849 8.19121 48.8387 8.26367 48.8387H29.826L42.8275 45.1846L49.7838 39.0047L52.2578 31.1996C49.3594 31.4377 46.7922 33.1457 45.4568 35.775L45.2084 36.2719C45.1566 36.3754 45.0738 36.4582 44.9703 36.51L36.4613 40.4746C36.3889 40.5057 36.3164 40.5264 36.2439 40.5264H20.9443C20.6855 40.5264 20.4682 40.34 20.4371 40.0916C20.3957 39.8432 20.5406 39.5947 20.7891 39.5223L34.4842 35.0504C35.2398 34.802 35.7471 34.1084 35.7471 33.3113C35.7471 32.7937 35.5193 32.2865 35.1363 31.9449C34.743 31.6033 34.2254 31.4377 33.7078 31.4998L21.0271 33.0318H20.965C18.3254 33.0318 15.7064 33.715 13.398 35.009L8.52246 37.7418C8.50176 37.7521 8.49141 37.7625 8.4707 37.7625L1.53516 40.7127Z" fill="#9A583F"/>
<path d="M14.2654 5.15294L13.2428 4.99219L8.22399 36.9177L9.24658 37.0784L14.2654 5.15294Z" fill="#9A583F"/>
<path d="M44.1629 33.3217L40.25 8.40544L36.8443 30.0402L35.8195 29.8746L39.7324 4.97908C39.7738 4.73064 39.9912 4.54431 40.2396 4.54431C40.4881 4.54431 40.7158 4.73064 40.7469 4.97908L45.1773 33.1457L44.1629 33.3217Z" fill="#9A583F"/>
<path d="M36.0439 35.1409L35.0213 34.9801L34.2465 39.909L35.2691 40.0698L36.0439 35.1409Z" fill="#9A583F"/>
<path d="M35.2088 40.2469L34.3185 39.7189L39.8049 30.3715C39.898 30.2162 40.0637 30.1127 40.25 30.1127C40.4363 30.1127 40.6019 30.2058 40.6951 30.3715L44.1422 36.2408L43.2519 36.7687L40.25 31.6551L35.2088 40.2469Z" fill="#9A583F"/>
<path d="M40.7676 5.07227H39.7324V30.6406H40.7676V5.07227Z" fill="#9A583F"/>
<path d="M21.0996 29.709C20.5199 29.709 19.9816 29.4813 19.5779 29.0568C19.1742 28.6428 18.9672 28.0941 18.9879 27.5145L19.4227 16.3969C18.3047 16.1484 17.4766 15.1547 17.4766 13.9746V9.73047C17.4766 8.36406 18.5945 7.24609 19.9609 7.24609H22.2383C23.6047 7.24609 24.7227 8.36406 24.7227 9.73047V13.9746C24.7227 15.165 23.8842 16.1588 22.7766 16.3969L23.2113 27.5145C23.232 28.0941 23.025 28.6428 22.6213 29.0568C22.2176 29.4813 21.6793 29.709 21.0996 29.709ZM19.9609 8.28125C19.1639 8.28125 18.5117 8.9334 18.5117 9.73047V13.9746C18.5117 14.7717 19.1639 15.4238 19.9609 15.4238C20.1059 15.4238 20.2404 15.4859 20.3336 15.5791C20.4268 15.6826 20.4785 15.8172 20.4785 15.9621L20.023 27.5559C20.0127 27.8457 20.1162 28.1252 20.3232 28.3426C20.5303 28.56 20.7994 28.6738 21.0996 28.6738C21.3998 28.6738 21.6689 28.56 21.876 28.3426C22.083 28.1252 22.1865 27.8457 22.1762 27.5559L21.7207 15.9621C21.7104 15.8172 21.7621 15.6826 21.8656 15.5791C21.9588 15.4756 22.0934 15.4238 22.2383 15.4238C23.0354 15.4238 23.6875 14.7717 23.6875 13.9746V9.73047C23.6875 8.9334 23.0354 8.28125 22.2383 8.28125H19.9609ZM30.8301 29.709C30.2504 29.709 29.7121 29.4813 29.3084 29.0568C28.9047 28.6428 28.6977 28.0941 28.7184 27.5145L29.1531 16.3969C28.0352 16.1484 27.207 15.1547 27.207 13.9746V10.8691C27.207 8.87129 28.8322 7.24609 30.8301 7.24609C32.8279 7.24609 34.4531 8.87129 34.4531 10.8691V13.9746C34.4531 15.165 33.6146 16.1588 32.507 16.3969L32.9418 27.5145C32.9625 28.0941 32.7555 28.6428 32.3518 29.0568C31.948 29.4813 31.4098 29.709 30.8301 29.709ZM30.8301 8.28125C29.4016 8.28125 28.2422 9.44062 28.2422 10.8691V13.9746C28.2422 14.7717 28.8943 15.4238 29.6914 15.4238C29.8363 15.4238 29.9709 15.4859 30.0641 15.5791C30.1572 15.6826 30.209 15.8172 30.209 15.9621L29.7535 27.5559C29.7432 27.8457 29.8467 28.1252 30.0537 28.3426C30.2607 28.56 30.5299 28.6738 30.8301 28.6738C31.1303 28.6738 31.3994 28.56 31.6064 28.3426C31.8135 28.1252 31.917 27.8457 31.9066 27.5559L31.4512 15.9621C31.4408 15.8172 31.4926 15.6826 31.5961 15.5791C31.6893 15.4756 31.8238 15.4238 31.9688 15.4238C32.7658 15.4238 33.418 14.7717 33.418 13.9746V10.8691C33.418 9.44062 32.2586 8.28125 30.8301 8.28125Z" fill="#9A583F"/>
<path d="M30.8301 8.28125C29.4016 8.28125 28.2422 9.44062 28.2422 10.8691V13.9746C28.2422 14.7717 28.8943 15.4238 29.6914 15.4238C29.8363 15.4238 29.9709 15.4859 30.0641 15.5791C30.1572 15.6826 30.209 15.8172 30.209 15.9621L29.7535 27.5559C29.7432 27.8457 29.8467 28.1252 30.0537 28.3426C30.2607 28.56 30.5299 28.6738 30.8301 28.6738C31.1303 28.6738 31.3994 28.56 31.6064 28.3426C31.8135 28.1252 31.917 27.8457 31.9066 27.5559L31.4512 15.9621C31.4408 15.8172 31.4926 15.6826 31.5961 15.5791C31.6893 15.4756 31.8238 15.4238 31.9688 15.4238C32.7658 15.4238 33.418 14.7717 33.418 13.9746V10.8691C33.418 9.44062 32.2586 8.28125 30.8301 8.28125Z" fill="#9A583F"/>
<path d="M19.9609 8.28125C19.1639 8.28125 18.5117 8.9334 18.5117 9.73047V13.9746C18.5117 14.7717 19.1639 15.4238 19.9609 15.4238C20.1059 15.4238 20.2404 15.4859 20.3336 15.5791C20.4268 15.6826 20.4785 15.8172 20.4785 15.9621L20.023 27.5559C20.0127 27.8457 20.1162 28.1252 20.3232 28.3426C20.5303 28.56 20.7994 28.6738 21.0996 28.6738C21.3998 28.6738 21.6689 28.56 21.876 28.3426C22.083 28.1252 22.1865 27.8457 22.1762 27.5559L21.7207 15.9621C21.7104 15.8172 21.7621 15.6826 21.8656 15.5791C21.9588 15.4756 22.0934 15.4238 22.2383 15.4238C23.0354 15.4238 23.6875 14.7717 23.6875 13.9746V9.73047C23.6875 8.9334 23.0354 8.28125 22.2383 8.28125H19.9609Z" fill="#9A583F"/>
<path d="M20 7H19V13H20V7Z" fill="white"/>
<path d="M23 7H22V13H23V7Z" fill="white"/>
</g>
<defs>
<clipPath id="clip0_99_247">
<rect x="0.5" width="53" height="53" rx="10" fill="white"/>
</clipPath>
</defs>
</svg>
